<?xml version="1.0" encoding="UTF-8"?>
<svg width="20px" height="20px" viewBox="0 0 20 20" version="1.1" xmlns="http://www.w3.org/2000/svg" xmlns:xlink="http://www.w3.org/1999/xlink">
    <title>play_circle_outline-24px copy</title>
    <g id="Course-Detail" stroke="none" stroke-width="1" fill="none" fill-rule="evenodd">
        <g id="Course-Detail---Layout-1" transform="translate(-137.000000, -1405.000000)">
            <g id="Group-50" transform="translate(113.000000, 1214.000000)">
                <g id="Group-21" transform="translate(0.000000, 52.000000)">
                    <g id="Group-17" transform="translate(24.000000, 136.000000)">
                        <g id="play_circle_outline-24px-copy" transform="translate(0.000000, 3.000000)">
                            <polygon id="Path" points="0 0 20 0 20 20 0 20"></polygon>
                            <path d="M8.33333333,13.75 L13.3333333,10 L8.33333333,6.25 L8.33333333,13.75 Z M10,1.66666667 C5.4,1.66666667 1.66666667,5.4 1.66666667,10 C1.66666667,14.6 5.4,18.3333333 10,18.3333333 C14.6,18.3333333 18.3333333,14.6 18.3333333,10 C18.3333333,5.4 14.6,1.66666667 10,1.66666667 Z M10,16.6666667 C6.325,16.6666667 3.33333333,13.675 3.33333333,10 C3.33333333,6.325 6.325,3.33333333 10,3.33333333 C13.675,3.33333333 16.6666667,6.325 16.6666667,10 C16.6666667,13.675 13.675,16.6666667 10,16.6666667 Z" id="Shape" fill="#979797" fill-rule="nonzero"></path>
                        </g>
                    </g>
                </g>
            </g>
        </g>
    </g>
</svg>